<svg width="703" height="703" viewBox="0 0 703 703" fill="none" xmlns="http://www.w3.org/2000/svg">
<circle cx="351.5" cy="351.5" r="351.5" fill="black"/>
<g filter="url(#filter0_d_7_90)">
<path d="M96.4977 446C92.4977 446 89.0977 444.8 86.2977 442.4C83.4977 439.8 82.0977 436.6 82.0977 432.8V249.2C82.0977 245.4 83.3977 242.3 85.9977 239.9C88.7977 237.3 92.2977 236 96.4977 236H166.698C183.698 236 198.698 239.2 211.698 245.6C224.698 252 234.798 261 241.998 272.6C249.398 284 253.098 297.1 253.098 311.9V369.5C253.098 384.3 249.398 397.5 241.998 409.1C234.798 420.7 224.598 429.8 211.398 436.4C198.398 442.8 183.498 446 166.698 446H96.4977ZM163.698 421.4C182.898 421.4 197.898 416.9 208.698 407.9C219.498 398.7 224.898 386 224.898 369.8V311.6C224.898 295.6 219.498 283.1 208.698 274.1C197.898 265.1 182.898 260.6 163.698 260.6H110.298V421.4H163.698Z" fill="white"/>
<path d="M352.456 448.7C340.256 448.7 329.356 446.4 319.756 441.8C310.156 437 302.656 430.5 297.256 422.3C291.856 413.9 289.156 404.5 289.156 394.1V349.7C289.156 339.1 291.956 329.5 297.556 320.9C303.356 312.3 311.056 305.6 320.656 300.8C330.456 295.8 341.056 293.3 352.456 293.3C363.856 293.3 374.256 295.7 383.656 300.5C393.256 305.3 400.756 311.9 406.156 320.3C411.756 328.7 414.556 338.2 414.556 348.8V368C414.556 371.2 413.356 373.9 410.956 376.1C408.556 378.3 405.656 379.4 402.256 379.4H314.656V392.9C314.656 403.1 317.856 411.3 324.256 417.5C330.856 423.7 340.256 426.8 352.456 426.8C364.656 426.8 373.956 424.1 380.356 418.7C386.756 413.3 389.956 406 389.956 396.8C395.956 396.4 400.956 397.6 404.956 400.4C409.156 403 411.256 406.9 411.256 412.1C411.256 418.5 408.456 424.5 402.856 430.1C397.456 435.7 390.256 440.2 381.256 443.6C372.256 447 362.656 448.7 352.456 448.7ZM390.256 359V348.8C390.256 338.8 386.756 330.7 379.756 324.5C372.956 318.1 363.856 314.9 352.456 314.9C341.056 314.9 331.856 318.1 324.856 324.5C318.056 330.7 314.656 338.8 314.656 348.8V359H390.256Z" fill="white"/>
<path d="M457.288 448.7C451.088 448.7 445.887 446.6 441.688 442.4L516.388 337.7L445.587 238.4C449.587 235 454.488 233.3 460.288 233.3C464.488 233.3 468.287 234.1 471.688 235.7C475.287 237.3 478.087 239.5 480.087 242.3L530.488 314.6L523.587 323.9L525.688 325.4L583.888 242.3C585.888 239.5 588.587 237.3 591.987 235.7C595.587 234.1 599.487 233.3 603.688 233.3C606.288 233.3 608.887 233.8 611.487 234.8C614.287 235.6 616.588 236.8 618.388 238.4L547.588 337.7L622.287 442.4C618.087 446.6 612.888 448.7 606.688 448.7C603.087 448.7 599.687 447.8 596.487 446C593.487 444.4 590.887 442.1 588.688 439.1L531.988 358.7L475.288 439.1C473.088 442.1 470.388 444.4 467.188 446C464.187 447.8 460.888 448.7 457.288 448.7Z" fill="white"/>
</g>
<defs>
<filter id="filter0_d_7_90" x="78.0977" y="233.3" width="548.19" height="223.4" filterUnits="userSpaceOnUse" color-interpolation-filters="sRGB">
<feFlood flood-opacity="0" result="BackgroundImageFix"/>
<feColorMatrix in="SourceAlpha" type="matrix" values="0 0 0 0 0 0 0 0 0 0 0 0 0 0 0 0 0 0 127 0" result="hardAlpha"/>
<feOffset dy="4"/>
<feGaussianBlur stdDeviation="2"/>
<feComposite in2="hardAlpha" operator="out"/>
<feColorMatrix type="matrix" values="0 0 0 0 0 0 0 0 0 0 0 0 0 0 0 0 0 0 0.25 0"/>
<feBlend mode="normal" in2="BackgroundImageFix" result="effect1_dropShadow_7_90"/>
<feBlend mode="normal" in="SourceGraphic" in2="effect1_dropShadow_7_90" result="shape"/>
</filter>
</defs>
</svg>
