<svg xmlns="http://www.w3.org/2000/svg" width="104" height="104" data-name="google podcasts" id="google-podcasts"><path fill="#0066d9" d="M13 48.454v7.091a6.5 6.5 0 0 1-13 0v-7.091a6.5 6.5 0 0 1 13 0Z" data-name="Path 192"></path><path fill="#4285f4" d="M91 48.639v-.185a6.5 6.5 0 0 1 13 0v7.276a6.5 6.5 0 0 1-12.995 0v-7.091Z" data-name="Path 193"></path><path fill="#ea4335" d="M35.454 69.728v7.091a6.5 6.5 0 0 1-13 0v-7.091a6.5 6.5 0 0 1 13 0Zm0-42.546v23.193a6.5 6.5 0 0 1-13 0V27.182a6.5 6.5 0 0 1 13 0Z" data-name="Path 194"></path><path fill="#34a853" d="M68.546 34.273a6.5 6.5 0 0 0 13 0v-7.091a6.5 6.5 0 0 0-13 0Z" data-name="Path 195"></path><path fill="#fab908" d="M45.5 13.591a6.5 6.5 0 1 0 13 0V6.5a6.5 6.5 0 0 0-13 0Zm0 76.818a6.5 6.5 0 0 1 13 0V97.5a6.5 6.5 0 0 1-13 0Z" data-name="Path 196"></path><path fill="#34a853" d="M68.546 53.773a6.5 6.5 0 1 1 13 0v23.046a6.5 6.5 0 0 1-13 0Z" data-name="Path 197"></path><path fill="#fab908" d="M58.5 33.091v37.818a6.5 6.5 0 0 1-13 0V33.091a6.5 6.5 0 1 1 13 0Z" data-name="Path 198"></path></svg>